{
  "accessors": [
    {
      "bufferView": 1,
      "componentType": 5126,
      "type": "VEC3",
      "count": 96,
      "min": [13, -9, 7],
      "max": [15, 9, 8]
    },
    {
      "bufferView": 1,
      "componentType": 5126,
      "type": "VEC3",
      "byteOffset": 12,
      "count": 96
    },
    {
      "bufferView": 1,
      "componentType": 5126,
      "type": "VEC2",
      "byteOffset": 24,
      "count": 96
    },
    {
      "bufferView": 2,
      "componentType": 5125,
      "type": "SCALAR",
      "count": 192
    },
    {
      "bufferView": 3,
      "componentType": 5126,
      "type": "VEC3",
      "count": 2562,
      "min": [-16, -11, 4],
      "max": [16, 11, 15]
    },
    {
      "bufferView": 3,
      "componentType": 5126,
      "type": "VEC3",
      "byteOffset": 12,
      "count": 2562
    },
    {
      "bufferView": 3,
      "componentType": 5126,
      "type": "VEC2",
      "byteOffset": 24,
      "count": 2562
    },
    {
      "bufferView": 4,
      "componentType": 5125,
      "type": "SCALAR",
      "count": 5514
    },
    {
      "bufferView": 5,
      "componentType": 5126,
      "type": "VEC3",
      "count": 562,
      "min": [-11, -8, 10],
      "max": [7, 8, 14]
    },
    {
      "bufferView": 5,
      "componentType": 5126,
      "type": "VEC3",
      "byteOffset": 12,
      "count": 562
    },
    {
      "bufferView": 5,
      "componentType": 5126,
      "type": "VEC2",
      "byteOffset": 24,
      "count": 562
    },
    {
      "bufferView": 6,
      "componentType": 5125,
      "type": "SCALAR",
      "count": 1260
    },
    {
      "bufferView": 7,
      "componentType": 5126,
      "type": "VEC3",
      "count": 64,
      "min": [-15, -7, 9],
      "max": [-14, 7, 10]
    },
    {
      "bufferView": 7,
      "componentType": 5126,
      "type": "VEC3",
      "byteOffset": 12,
      "count": 64
    },
    {
      "bufferView": 7,
      "componentType": 5126,
      "type": "VEC2",
      "byteOffset": 24,
      "count": 64
    },
    {
      "bufferView": 8,
      "componentType": 5125,
      "type": "SCALAR",
      "count": 120
    },
    {
      "bufferView": 9,
      "componentType": 5126,
      "type": "VEC3",
      "count": 64,
      "min": [-15, -8, 8],
      "max": [-14, 8, 9]
    },
    {
      "bufferView": 9,
      "componentType": 5126,
      "type": "VEC3",
      "byteOffset": 12,
      "count": 64
    },
    {
      "bufferView": 9,
      "componentType": 5126,
      "type": "VEC2",
      "byteOffset": 24,
      "count": 64
    },
    {
      "bufferView": 10,
      "componentType": 5125,
      "type": "SCALAR",
      "count": 120
    },
    {
      "bufferView": 11,
      "componentType": 5126,
      "type": "VEC3",
      "count": 264,
      "min": [-13, -10, 2],
      "max": [-7, -8, 8]
    },
    {
      "bufferView": 11,
      "componentType": 5126,
      "type": "VEC3",
      "byteOffset": 12,
      "count": 264
    },
    {
      "bufferView": 11,
      "componentType": 5126,
      "type": "VEC2",
      "byteOffset": 24,
      "count": 264
    },
    {
      "bufferView": 12,
      "componentType": 5125,
      "type": "SCALAR",
      "count": 606
    },
    {
      "bufferView": 13,
      "componentType": 5126,
      "type": "VEC3",
      "count": 268,
      "min": [-13, 8, 2],
      "max": [-7, 10, 8]
    },
    {
      "bufferView": 13,
      "componentType": 5126,
      "type": "VEC3",
      "byteOffset": 12,
      "count": 268
    },
    {
      "bufferView": 13,
      "componentType": 5126,
      "type": "VEC2",
      "byteOffset": 24,
      "count": 268
    },
    {
      "bufferView": 14,
      "componentType": 5125,
      "type": "SCALAR",
      "count": 618
    },
    {
      "bufferView": 15,
      "componentType": 5126,
      "type": "VEC3",
      "count": 264,
      "min": [5, -10, 2],
      "max": [11, -8, 8]
    },
    {
      "bufferView": 15,
      "componentType": 5126,
      "type": "VEC3",
      "byteOffset": 12,
      "count": 264
    },
    {
      "bufferView": 15,
      "componentType": 5126,
      "type": "VEC2",
      "byteOffset": 24,
      "count": 264
    },
    {
      "bufferView": 16,
      "componentType": 5125,
      "type": "SCALAR",
      "count": 606
    },
    {
      "bufferView": 17,
      "componentType": 5126,
      "type": "VEC3",
      "count": 268,
      "min": [5, 8, 2],
      "max": [11, 10, 8]
    },
    {
      "bufferView": 17,
      "componentType": 5126,
      "type": "VEC3",
      "byteOffset": 12,
      "count": 268
    },
    {
      "bufferView": 17,
      "componentType": 5126,
      "type": "VEC2",
      "byteOffset": 24,
      "count": 268
    },
    {
      "bufferView": 18,
      "componentType": 5125,
      "type": "SCALAR",
      "count": 618
    },
    {
      "bufferView": 19,
      "componentType": 5126,
      "type": "VEC3",
      "count": 256,
      "min": [-6, -4, 15],
      "max": [2, 4, 19]
    },
    {
      "bufferView": 19,
      "componentType": 5126,
      "type": "VEC3",
      "byteOffset": 12,
      "count": 256
    },
    {
      "bufferView": 19,
      "componentType": 5126,
      "type": "VEC2",
      "byteOffset": 24,
      "count": 256
    },
    {
      "bufferView": 20,
      "componentType": 5125,
      "type": "SCALAR",
      "count": 564
    },
    {
      "bufferView": 21,
      "componentType": 5126,
      "type": "VEC3",
      "count": 496,
      "min": [-6, -3, 17],
      "max": [0, 3, 26]
    },
    {
      "bufferView": 21,
      "componentType": 5126,
      "type": "VEC3",
      "byteOffset": 12,
      "count": 496
    },
    {
      "bufferView": 21,
      "componentType": 5126,
      "type": "VEC2",
      "byteOffset": 24,
      "count": 496
    },
    {
      "bufferView": 22,
      "componentType": 5125,
      "type": "SCALAR",
      "count": 1014
    }
  ],
  "asset": {
    "generator": "goxel",
    "version": "2.0"
  },
  "bufferViews": [
    {
      "buffer": 0,
      "byteLength": 282
    },
    {
      "buffer": 1,
      "byteLength": 3840,
      "byteStride": 40
    },
    {
      "buffer": 2,
      "byteLength": 768
    },
    {
      "buffer": 3,
      "byteLength": 102480,
      "byteStride": 40
    },
    {
      "buffer": 4,
      "byteLength": 22056
    },
    {
      "buffer": 5,
      "byteLength": 22480,
      "byteStride": 40
    },
    {
      "buffer": 6,
      "byteLength": 5040
    },
    {
      "buffer": 7,
      "byteLength": 2560,
      "byteStride": 40
    },
    {
      "buffer": 8,
      "byteLength": 480
    },
    {
      "buffer": 9,
      "byteLength": 2560,
      "byteStride": 40
    },
    {
      "buffer": 10,
      "byteLength": 480
    },
    {
      "buffer": 11,
      "byteLength": 10560,
      "byteStride": 40
    },
    {
      "buffer": 12,
      "byteLength": 2424
    },
    {
      "buffer": 13,
      "byteLength": 10720,
      "byteStride": 40
    },
    {
      "buffer": 14,
      "byteLength": 2472
    },
    {
      "buffer": 15,
      "byteLength": 10560,
      "byteStride": 40
    },
    {
      "buffer": 16,
      "byteLength": 2424
    },
    {
      "buffer": 17,
      "byteLength": 10720,
      "byteStride": 40
    },
    {
      "buffer": 18,
      "byteLength": 2472
    },
    {
      "buffer": 19,
      "byteLength": 10240,
      "byteStride": 40
    },
    {
      "buffer": 20,
      "byteLength": 2256
    },
    {
      "buffer": 21,
      "byteLength": 19840,
      "byteStride": 40
    },
    {
      "buffer": 22,
      "byteLength": 4056
    }
  ],
  "buffers": [
    {
      "uri": "data:application/octet-stream;base64,",
      "byteLength": 282
    },
    {
      "uri": "data:application/octet-stream;base64,",
      "byteLength": 3840
    },
    {
      "uri": "data:application/octet-stream;base64,",
      "byteLength": 768
    },
    {
      "uri": "data:application/octet-stream;base64,",
      "byteLength": 102480
    },
    {
      "uri": "data:application/octet-stream;base64,",
      "byteLength": 22056
    },
    {
      "uri": "data:application/octet-stream;base64,",
      "byteLength": 22480
    },
    {
      "uri": "data:application/octet-stream;base64,",
      "byteLength": 5040
    },
    {
      "uri": "data:application/octet-stream;base64,",
      "byteLength": 2560
    },
    {
      "uri": "data:application/octet-stream;base64,",
      "byteLength": 480
    },
    {
      "uri": "data:application/octet-stream;base64,",
      "byteLength": 2560
    },
    {
      "uri": "data:application/octet-stream;base64,",
      "byteLength": 480
    },
    {
      "uri": "data:application/octet-stream;base64,",
      "byteLength": 10560
    },
    {
      "uri": "data:application/octet-stream;base64,",
      "byteLength": 2424
    },
    {
      "uri": "data:application/octet-stream;base64,",
      "byteLength": 10720
    },
    {
      "uri": "data:application/octet-stream;base64,",
      "byteLength": 2472
    },
    {
      "uri": "data:application/octet-stream;base64,",
      "byteLength": 10560
    },
    {
      "uri": "data:application/octet-stream;base64,",
      "byteLength": 2424
    },
    {
      "uri": "data:application/octet-stream;base64,",
      "byteLength": 10720
    },
    {
      "uri": "data:application/octet-stream;base64,",
      "byteLength": 2472
    },
    {
      "uri": "data:application/octet-stream;base64,",
      "byteLength": 10240
    },
    {
      "uri": "data:application/octet-stream;base64,",
      "byteLength": 2256
    },
    {
      "uri": "data:application/octet-stream;base64,",
      "byteLength": 19840
    },
    {
      "uri": "data:application/octet-stream;base64,",
      "byteLength": 4056
    }
  ],
  "images": [
    {
      "bufferView": 0,
      "mimeType": "image/png"
    }
  ],
  "meshes": [
    {
      "primitives": [
        {
          "indices": 3,
          "material": 0,
          "attributes": {
            "POSITION": 0,
            "NORMAL": 1,
            "TEXCOORD_0": 2
          }
        }
      ]
    },
    {
      "primitives": [
        {
          "indices": 7,
          "material": 0,
          "attributes": {
            "POSITION": 4,
            "NORMAL": 5,
            "TEXCOORD_0": 6
          }
        }
      ]
    },
    {
      "primitives": [
        {
          "indices": 11,
          "material": 0,
          "attributes": {
            "POSITION": 8,
            "NORMAL": 9,
            "TEXCOORD_0": 10
          }
        }
      ]
    },
    {
      "primitives": [
        {
          "indices": 15,
          "material": 0,
          "attributes": {
            "POSITION": 12,
            "NORMAL": 13,
            "TEXCOORD_0": 14
          }
        }
      ]
    },
    {
      "primitives": [
        {
          "indices": 19,
          "material": 0,
          "attributes": {
            "POSITION": 16,
            "NORMAL": 17,
            "TEXCOORD_0": 18
          }
        }
      ]
    },
    {
      "primitives": [
        {
          "indices": 23,
          "material": 0,
          "attributes": {
            "POSITION": 20,
            "NORMAL": 21,
            "TEXCOORD_0": 22
          }
        }
      ]
    },
    {
      "primitives": [
        {
          "indices": 27,
          "material": 0,
          "attributes": {
            "POSITION": 24,
            "NORMAL": 25,
            "TEXCOORD_0": 26
          }
        }
      ]
    },
    {
      "primitives": [
        {
          "indices": 31,
          "material": 0,
          "attributes": {
            "POSITION": 28,
            "NORMAL": 29,
            "TEXCOORD_0": 30
          }
        }
      ]
    },
    {
      "primitives": [
        {
          "indices": 35,
          "material": 0,
          "attributes": {
            "POSITION": 32,
            "NORMAL": 33,
            "TEXCOORD_0": 34
          }
        }
      ]
    },
    {
      "primitives": [
        {
          "indices": 39,
          "material": 0,
          "attributes": {
            "POSITION": 36,
            "NORMAL": 37,
            "TEXCOORD_0": 38
          }
        }
      ]
    },
    {
      "primitives": [
        {
          "indices": 43,
          "material": 0,
          "attributes": {
            "POSITION": 40,
            "NORMAL": 41,
            "TEXCOORD_0": 42
          }
        }
      ]
    }
  ],
  "materials": [
    {
      "name": "Material.1",
      "pbrMetallicRoughness": {
        "baseColorTexture": {
          "index": 0
        },
        "metallicFactor": 0.200000003,
        "roughnessFactor": 0.5
      }
    }
  ],
  "nodes": [
    {
      "children": [ 1, 2, 3, 4, 5, 6, 7, 8, 9, 10, 11 ],
      "matrix": [1, 0, 0, 0, 0, 0, -1, 0, 0, 1, 0, 0, 0, 0, 0, 1]
    },
    {
      "mesh": 0,
      "name": "Front lights"
    },
    {
      "mesh": 1,
      "name": "Chassi"
    },
    {
      "mesh": 2,
      "name": "Windows"
    },
    {
      "mesh": 3,
      "name": "Back reverse lights"
    },
    {
      "mesh": 4,
      "name": "Back break lights"
    },
    {
      "mesh": 5,
      "name": "Wheel back right"
    },
    {
      "mesh": 6,
      "name": "Wheel back left"
    },
    {
      "mesh": 7,
      "name": "Wheel front right"
    },
    {
      "mesh": 8,
      "name": "Wheel front left"
    },
    {
      "mesh": 9,
      "name": "Gun base"
    },
    {
      "mesh": 10,
      "name": "Gun cannon"
    }
  ],
  "scenes": [
    {
      "nodes": [ 0 ]
    }
  ],
  "textures": [
    {
      "source": 0
    }
  ]
}
